Coordinates
version=1
nRows=14
nColumns=24
inDegrees=yes

Units are S.I. units (second, meters, Newtons, ...)
Angles are in degrees.

endheader
time	pelvis_tilt	pelvis_list	pelvis_rotation	pelvis_tx	pelvis_ty	pelvis_tz	hip_flexion_r	hip_adduction_r	hip_rotation_r	knee_angle_r	ankle_angle_r	subtalar_angle_r	mtp_angle_r	hip_flexion_l	hip_adduction_l	hip_rotation_l	knee_angle_l	ankle_angle_l	subtalar_angle_l	mtp_angle_l	lumbar_extension	lumbar_bending	lumbar_rotation
      6.97000000	     68.61399073	      6.11615786	      0.40791169	      0.77185118	      1.02847353	     -0.28610773	     -9.92431503	    -12.54674778	     -2.81352546	    -49.14137121	    -21.99101925	    -22.00534064	25001537.03975250	     -6.56092802	     -2.27760624	     -9.69282223	    -60.37972137	     -4.12855101	     -4.25652817	-16750623.18679175	      0.00000000	      0.00000000	      0.00000000
      6.98000000	     68.65049902	      6.08432986	      0.42336270	      0.77190790	      1.02833615	     -0.28615379	     -9.78741840	    -12.45745752	     -3.12858010	    -49.51560244	    -21.74432670	    -22.66719622	25148552.60981816	     -6.61288060	     -2.35808192	     -9.65565281	    -60.26791125	     -3.95746513	     -4.41577219	-16902393.20788240	      0.00000000	      0.00000000	      0.00000000
      6.99000000	     68.62814458	      6.03251472	      0.39427610	      0.77163872	      1.02775674	     -0.28580873	     -9.68560240	    -12.31667408	     -3.53480513	    -50.06079942	    -21.53549410	    -23.26300561	25295981.62864205	     -6.66805214	     -2.42519979	     -9.61940619	    -60.17437889	     -3.59784393	     -4.35569620	-17055155.15991439	      0.00000000	      0.00000000	      0.00000000
      7.00000000	     68.61153725	      5.99894538	      0.34991819	      0.77142054	      1.02765173	     -0.28564766	     -9.61666402	    -12.15532293	     -3.95049191	    -50.62893433	    -21.37730950	    -23.85994862	25443823.48597874	     -6.70204704	     -2.46581062	     -9.60318722	    -60.15294003	     -3.06586859	     -4.07226861	-17208912.16890720	      0.00000000	      0.00000000	      0.00000000
      7.01000000	     68.64604601	      6.00404124	      0.32846751	      0.77150282	      1.02831370	     -0.28597733	     -9.58184007	    -12.03552247	     -4.26617661	    -51.04635255	    -21.25472731	    -24.52516892	25592077.58187737	     -6.69526289	     -2.48653437	     -9.61457866	    -60.24074906	     -2.40548073	     -3.61582882	-17363667.32965381	      0.00000000	      0.00000000	      0.00000000
      7.02000000	     68.69109482	      6.02242377	      0.35035678	      0.77166736	      1.02875485	     -0.28623353	     -9.61663527	    -12.00902380	     -4.39556503	    -51.20062471	    -21.12835192	    -25.30195870	25740743.32030050	     -6.65738523	     -2.48286433	     -9.65467048	    -60.44104503	     -1.70512279	     -3.08214420	-17519423.70627790	      0.00000000	      0.00000000	      0.00000000
      7.03000000	     68.69435035	      6.02600960	      0.39930073	      0.77169414	      1.02843150	     -0.28593048	     -9.73896485	    -12.06760910	     -4.31626204	    -51.07251559	    -20.93560694	    -26.19965971	25889820.10869584	     -6.60914869	     -2.44543868	     -9.71442317	    -60.70194241	     -1.08619178	     -2.59717176	-17676184.33371334	      0.00000000	      0.00000000	      0.00000000
      7.04000000	     68.66562380	      6.02486532	      0.43235310	      0.77165699	      1.02802285	     -0.28544580	     -9.90706211	    -12.14756150	     -4.07051002	    -50.71848324	    -20.60510352	    -27.18918252	26039307.35699780	     -6.56106890	     -2.38628155	     -9.77073747	    -60.92444531	     -0.67217970	     -2.29119229	-17833952.21999071	      0.00000000	      0.00000000	      0.00000000
      7.05000000	     68.64321364	      6.04561099	      0.41742684	      0.77155527	      1.02800933	     -0.28549757	    -10.05311598	    -12.19154512	     -3.73116488	    -50.23919340	    -20.08946977	    -28.19886981	26189204.47103584	     -6.52179027	     -2.34225921	     -9.79568095	    -61.01358509	     -0.55586859	     -2.26243573	-17992730.34886859	      0.00000000	      0.00000000	      0.00000000
      7.06000000	     68.65164441	      6.08043555	      0.37259705	      0.77139333	      1.02818162	     -0.28601294	    -10.12961965	    -12.20829015	     -3.36251748	    -49.74487503	    -19.39806230	    -29.11832751	26339510.84079415	     -6.50235469	     -2.35134242	     -9.77392248	    -60.93062964	     -0.77094677	     -2.54507135	-18152521.68334523	      0.00000000	      0.00000000	      0.00000000
      7.07000000	     68.68866471	      6.08586101	      0.35227389	      0.77137471	      1.02834210	     -0.28618037	    -10.12808030	    -12.24676510	     -3.01548542	    -49.33721852	    -18.61161705	    -29.81381761	26490225.82711475	     -6.51253807	     -2.41917256	     -9.71501541	    -60.70820653	     -1.27677406	     -3.09718409	-18313329.17119535	      0.00000000	      0.00000000	      0.00000000
      7.08000000	     68.71431109	      6.03901151	      0.38057936	      0.77156446	      1.02829585	     -0.28573732	    -10.08016309	    -12.30831126	     -2.75048959	    -49.11043619	    -17.87495959	    -30.14946300	26641348.74956676	     -6.56252632	     -2.50560404	     -9.64974666	    -60.42552958	     -1.96332382	     -3.81440021	-18475155.75300328	      0.00000000	      0.00000000	      0.00000000
      7.09000000	     68.68848821	      5.96927382	      0.42271688	      0.77178511	      1.02803215	     -0.28531418	    -10.02886907	    -12.32750212	     -2.63106525	    -49.13182596	    -17.36890306	    -30.00978534	26792878.87614550	     -6.64904192	     -2.55173528	     -9.61190276	    -60.16439505	     -2.67174005	     -4.56232308	-18638004.37207066	      0.00000000	      0.00000000	      0.00000000
      7.10000000	     68.62045061	      5.92600899	      0.42547477	      0.77182737	      1.02790998	     -0.28543365	     -9.99995273	    -12.25524012	     -2.67738545	    -49.40446786	    -17.26768774	    -29.32075068	26944815.41315977	     -6.73645748	     -2.52925843	     -9.61804628	    -59.97698968	     -3.23005664	     -5.21049108	-18801877.98497731	      0.00000000	      0.00000000	      0.00000000
